<svg width="800" height="800" viewBox="0 0 800 800" fill="none" xmlns="http://www.w3.org/2000/svg">
  <rect width="800" height="800" fill="#E8DED8"/>
  <rect width="800" height="800" fill="url(#paint0_linear)"/>
  <circle cx="400" cy="300" r="130" fill="#D6B7A6"/>
  <path d="M183 714C183 568.75 280.596 451 401 451C521.404 451 619 568.75 619 714V800H183V714Z" fill="#B58770"/>
  <path d="M280 246C280 186.906 327.906 139 387 139H413C472.094 139 520 186.906 520 246V334C520 393.094 472.094 441 413 441H387C327.906 441 280 393.094 280 334V246Z" fill="#C79C86"/>
  <path d="M258 246C258 153.248 333.248 78 426 78C518.752 78 594 153.248 594 246V268H258V246Z" fill="#6B504A"/>
  <path d="M259 267H593V293C593 386.336 517.336 462 424 462H428C335.664 462 260 386.336 260 293V267H259Z" fill="#C79C86"/>
  <path d="M287 233C287 188.265 323.265 152 368 152H480C524.735 152 561 188.265 561 233V256H287V233Z" fill="#6B504A"/>
  <circle cx="320" cy="575" r="22" fill="#EEDFD4" fill-opacity="0.9"/>
  <circle cx="481" cy="527" r="12" fill="#EEDFD4" fill-opacity="0.9"/>
  <circle cx="560" cy="628" r="16" fill="#EEDFD4" fill-opacity="0.9"/>
  <path d="M104 702C104 608.15 180.15 532 274 532H526C619.85 532 696 608.15 696 702V800H104V702Z" fill="#A47361" fill-opacity="0.85"/>
  <path d="M0 643C137.333 597.667 270.667 575 400 575C529.333 575 662.667 597.667 800 643V800H0V643Z" fill="#F4ECE7" fill-opacity="0.45"/>
  <text x="400" y="742" text-anchor="middle" fill="#4F3C38" font-family="Georgia, serif" font-size="34" letter-spacing="4">
    MIRA PORTRAIT PLACEHOLDER
  </text>
  <defs>
    <linearGradient id="paint0_linear" x1="120" y1="84" x2="676" y2="746" gradientUnits="userSpaceOnUse">
      <stop stop-color="#F4ECE7"/>
      <stop offset="1" stop-color="#D4C1B7"/>
    </linearGradient>
  </defs>
</svg>
