<svg width="768" height="1024" viewBox="0 0 768 1024" fill="none" xmlns="http://www.w3.org/2000/svg">
  <rect width="768" height="1024" fill="#151313"/>
  <rect width="768" height="1024" fill="url(#paint0_linear)"/>
  <path d="M0 786C108.167 748.667 196.833 730 266 730C358.167 730 478.833 770 628 850L768 924V1024H0V786Z" fill="#1E1A1A" fill-opacity="0.72"/>
  <circle cx="385" cy="367" r="118" fill="#D7D1CB"/>
  <path d="M272 547C272 493.98 314.98 451 368 451H402C455.02 451 498 493.98 498 547V686H272V547Z" fill="#CDC5BE"/>
  <path d="M266 321C266 253.069 321.069 198 389 198C456.931 198 512 253.069 512 321V358H266V321Z" fill="#2E2627"/>
  <path d="M170 1024C170 833.758 266.592 679.5 385.75 679.5C504.908 679.5 601.5 833.758 601.5 1024H170Z" fill="#A39A93" fill-opacity="0.22"/>
  <path d="M140 1024C140 853.432 248.82 715.146 383 715.146C517.18 715.146 626 853.432 626 1024H140Z" fill="#8D837E" fill-opacity="0.18"/>
  <text x="384" y="932" text-anchor="middle" fill="#F0E8E0" font-family="Georgia, serif" font-size="44" letter-spacing="1.5">
    Portrait Coming Soon
  </text>
  <defs>
    <linearGradient id="paint0_linear" x1="384" y1="0" x2="384" y2="1024" gradientUnits="userSpaceOnUse">
      <stop stop-color="#221C1D"/>
      <stop offset="0.45" stop-color="#141212"/>
      <stop offset="1" stop-color="#2A2324"/>
    </linearGradient>
  </defs>
</svg>
